<?xml version="1.0" encoding="UTF-8" standalone="no"?><!-- Generator: Gravit.io --><svg xmlns="http://www.w3.org/2000/svg" xmlns:xlink="http://www.w3.org/1999/xlink" style="isolation:isolate" viewBox="0 0 150 150" width="150pt" height="150pt"><defs><clipPath id="_clipPath_SsC7UdXYupRjXLTCFMlg8wW4WJYNocSC"><rect width="150" height="150"/></clipPath></defs><g clip-path="url(#_clipPath_SsC7UdXYupRjXLTCFMlg8wW4WJYNocSC)"><circle vector-effect="non-scaling-stroke" cx="77" cy="77" r="75" fill="rgb(235,235,235)"/><rect x="38.058" y="68.421" width="77.885" height="72.04" transform="matrix(1,0,0,1,0,0)" fill="rgb(0,136,0)"/><polygon points="2,88.181,48.555,7.769,94.308,88.538" fill="rgb(255,0,0)"/><circle vector-effect="non-scaling-stroke" cx="107.28846153846152" cy="62.61440173761711" r="41.826923076923066" fill="rgb(0,0,255)"/><g clip-path="url(#_clipPath_o3evnjJQzhT1XZcmDqL3xrOahiKKgyap)"><text transform="matrix(1.534,-0.009,0.009,1.534,66.812,119.193)" style="font-family:'Open Sans';font-weight:400;font-size:14px;font-style:normal;fill:#b9b9b9;stroke:none;">M</text></g><defs><clipPath id="_clipPath_o3evnjJQzhT1XZcmDqL3xrOahiKKgyap"><rect x="0" y="0" width="26.337" height="23.755" transform="matrix(1.534,-0.009,0.009,1.534,66.675,96.242)"/></clipPath></defs><g clip-path="url(#_clipPath_RojsWh1wX8OdhpzOicRHFYiugyGxcIhe)"><text transform="matrix(1.534,-0.009,0.009,1.534,90.118,67.09)" style="font-family:'Open Sans';font-weight:400;font-size:12px;font-style:normal;fill:#b9b9b9;stroke:none;">App</text></g><defs><clipPath id="_clipPath_RojsWh1wX8OdhpzOicRHFYiugyGxcIhe"><rect x="0" y="0" width="39.846" height="21.865" transform="matrix(1.534,-0.009,0.009,1.534,90,47.417)"/></clipPath></defs><g clip-path="url(#_clipPath_kYqdTlBGn4JI1E3NqlofyEExHKHEUMbz)"><text transform="matrix(1.534,-0.009,0.009,1.534,38.195,68.857)" style="font-family:'Open Sans';font-weight:400;font-size:14px;font-style:normal;fill:#b9b9b9;stroke:none;">W</text></g><defs><clipPath id="_clipPath_kYqdTlBGn4JI1E3NqlofyEExHKHEUMbz"><rect x="0" y="0" width="26.337" height="23.755" transform="matrix(1.534,-0.009,0.009,1.534,38.058,45.905)"/></clipPath></defs></g></svg>